<svg xmlns="http://www.w3.org/2000/svg" viewBox="0 0 860 540" width="860" height="540" font-family="system-ui, -apple-system, 'Apple SD Gothic Neo', sans-serif">

  <!-- Background -->
  <rect width="860" height="540" fill="#F8FAFC" rx="16"/>

  <!-- Title -->
  <text x="430" y="36" text-anchor="middle" fill="#1E293B" font-size="15" font-weight="700">모노레포 구조</text>

  <!-- ── ROOT ── -->
  <rect x="290" y="56" width="280" height="44" rx="8" fill="#6366F1"/>
  <text x="430" y="73" text-anchor="middle" fill="white" font-size="12" font-weight="600">gada-mobile-hub/</text>
  <text x="430" y="90" text-anchor="middle" fill="#C7D2FE" font-size="11">package.json · bitbucket-pipelines.yml · scripts/</text>

  <!-- root → apps branch line -->
  <line x1="430" y1="100" x2="430" y2="116" stroke="#94A3B8" stroke-width="1.5"/>
  <line x1="200" y1="116" x2="660" y2="116" stroke="#94A3B8" stroke-width="1.5"/>

  <!-- root → apps left -->
  <line x1="200" y1="116" x2="200" y2="132" stroke="#94A3B8" stroke-width="1.5"/>
  <!-- root → packages right -->
  <line x1="660" y1="116" x2="660" y2="132" stroke="#94A3B8" stroke-width="1.5"/>

  <!-- ── apps/ label ── -->
  <text x="200" y="128" text-anchor="middle" fill="#64748B" font-size="11" font-weight="600">apps/</text>

  <!-- ── packages/ label ── -->
  <text x="660" y="128" text-anchor="middle" fill="#64748B" font-size="11" font-weight="600">packages/</text>

  <!-- apps/ branch -->
  <line x1="200" y1="132" x2="200" y2="148" stroke="#94A3B8" stroke-width="1.5"/>
  <line x1="86" y1="148" x2="314" y2="148" stroke="#94A3B8" stroke-width="1.5"/>
  <line x1="86" y1="148" x2="86" y2="164" stroke="#3B82F6" stroke-width="1.5"/>
  <line x1="314" y1="148" x2="314" y2="164" stroke="#3B82F6" stroke-width="1.5"/>

  <!-- packages/ branch -->
  <line x1="660" y1="132" x2="660" y2="148" stroke="#94A3B8" stroke-width="1.5"/>
  <line x1="570" y1="148" x2="750" y2="148" stroke="#94A3B8" stroke-width="1.5"/>
  <line x1="570" y1="148" x2="570" y2="164" stroke="#059669" stroke-width="1.5"/>
  <line x1="750" y1="148" x2="750" y2="164" stroke="#059669" stroke-width="1.5"/>

  <!-- ── workerApp box ── -->
  <rect x="20" y="164" width="132" height="36" rx="7" fill="#3B82F6"/>
  <text x="86" y="179" text-anchor="middle" fill="white" font-size="12" font-weight="600">workerApp/</text>
  <text x="86" y="193" text-anchor="middle" fill="#BFDBFE" font-size="10">근로자앱</text>

  <!-- ── managerApp box ── -->
  <rect x="248" y="164" width="132" height="36" rx="7" fill="#3B82F6"/>
  <text x="314" y="179" text-anchor="middle" fill="white" font-size="12" font-weight="600">managerApp/</text>
  <text x="314" y="193" text-anchor="middle" fill="#BFDBFE" font-size="10">관리자앱</text>

  <!-- ── common/ box ── -->
  <rect x="504" y="164" width="132" height="36" rx="7" fill="#059669"/>
  <text x="570" y="179" text-anchor="middle" fill="white" font-size="12" font-weight="600">common/</text>
  <text x="570" y="193" text-anchor="middle" fill="#A7F3D0" font-size="10">공통 로직 · 유틸</text>

  <!-- ── ui/ box ── -->
  <rect x="684" y="164" width="132" height="36" rx="7" fill="#059669"/>
  <text x="750" y="179" text-anchor="middle" fill="white" font-size="12" font-weight="600">ui/</text>
  <text x="750" y="193" text-anchor="middle" fill="#A7F3D0" font-size="10">공통 UI 컴포넌트</text>

  <!-- workerApp internals line -->
  <line x1="86" y1="200" x2="86" y2="216" stroke="#3B82F6" stroke-width="1.5"/>

  <!-- managerApp internals line -->
  <line x1="314" y1="200" x2="314" y2="216" stroke="#3B82F6" stroke-width="1.5"/>

  <!-- ── workerApp internals ── -->
  <rect x="20" y="216" width="132" height="240" rx="7" fill="white" stroke="#BFDBFE" stroke-width="1.5"/>
  <text x="86" y="234" text-anchor="middle" fill="#1E40AF" font-size="10" font-weight="600">android/  ios/</text>
  <line x1="30" y1="240" x2="142" y2="240" stroke="#E2E8F0" stroke-width="1"/>
  <text x="86" y="256" text-anchor="middle" fill="#475569" font-size="10">screens/</text>
  <text x="86" y="272" text-anchor="middle" fill="#475569" font-size="10">components/</text>
  <text x="86" y="288" text-anchor="middle" fill="#475569" font-size="10">hooks/</text>
  <text x="86" y="304" text-anchor="middle" fill="#475569" font-size="10">stores/</text>
  <text x="86" y="320" text-anchor="middle" fill="#475569" font-size="10">api/</text>
  <text x="86" y="336" text-anchor="middle" fill="#475569" font-size="10">services/</text>
  <text x="86" y="352" text-anchor="middle" fill="#475569" font-size="10">assets/</text>
  <line x1="30" y1="358" x2="142" y2="358" stroke="#E2E8F0" stroke-width="1"/>
  <text x="86" y="374" text-anchor="middle" fill="#6366F1" font-size="10">hot-updater.config.ts</text>
  <text x="86" y="390" text-anchor="middle" fill="#6366F1" font-size="10">tailwind.config.js</text>
  <text x="86" y="406" text-anchor="middle" fill="#6366F1" font-size="10">Gemfile (Fastlane)</text>
  <text x="86" y="422" text-anchor="middle" fill="#6366F1" font-size="10">App.tsx</text>
  <text x="86" y="438" text-anchor="middle" fill="#6366F1" font-size="10">tsconfig.json</text>

  <!-- ── managerApp internals ── -->
  <rect x="248" y="216" width="132" height="240" rx="7" fill="white" stroke="#BFDBFE" stroke-width="1.5"/>
  <text x="314" y="234" text-anchor="middle" fill="#1E40AF" font-size="10" font-weight="600">android/  ios/</text>
  <line x1="258" y1="240" x2="370" y2="240" stroke="#E2E8F0" stroke-width="1"/>
  <text x="314" y="256" text-anchor="middle" fill="#475569" font-size="10">screens/</text>
  <text x="314" y="272" text-anchor="middle" fill="#475569" font-size="10">components/</text>
  <text x="314" y="288" text-anchor="middle" fill="#475569" font-size="10">hooks/</text>
  <text x="314" y="304" text-anchor="middle" fill="#475569" font-size="10">stores/</text>
  <text x="314" y="320" text-anchor="middle" fill="#475569" font-size="10">api/</text>
  <text x="314" y="336" text-anchor="middle" fill="#475569" font-size="10">utils/</text>
  <text x="314" y="352" text-anchor="middle" fill="#475569" font-size="10">assets/</text>
  <line x1="258" y1="358" x2="370" y2="358" stroke="#E2E8F0" stroke-width="1"/>
  <text x="314" y="374" text-anchor="middle" fill="#6366F1" font-size="10">hot-updater.config.ts</text>
  <text x="314" y="390" text-anchor="middle" fill="#6366F1" font-size="10">tailwind.config.js</text>
  <text x="314" y="406" text-anchor="middle" fill="#6366F1" font-size="10">Gemfile (Fastlane)</text>
  <text x="314" y="422" text-anchor="middle" fill="#6366F1" font-size="10">App.tsx</text>
  <text x="314" y="438" text-anchor="middle" fill="#6366F1" font-size="10">tsconfig.json</text>

  <!-- packages internals lines -->
  <line x1="570" y1="200" x2="570" y2="216" stroke="#059669" stroke-width="1.5"/>
  <line x1="750" y1="200" x2="750" y2="216" stroke="#059669" stroke-width="1.5"/>

  <!-- ── common internals ── -->
  <rect x="504" y="216" width="132" height="80" rx="7" fill="white" stroke="#A7F3D0" stroke-width="1.5"/>
  <text x="570" y="234" text-anchor="middle" fill="#065F46" font-size="10" font-weight="600">src/</text>
  <line x1="514" y1="240" x2="626" y2="240" stroke="#E2E8F0" stroke-width="1"/>
  <text x="570" y="256" text-anchor="middle" fill="#475569" font-size="10">공통 로직</text>
  <text x="570" y="272" text-anchor="middle" fill="#475569" font-size="10">유틸리티 함수</text>
  <text x="570" y="288" text-anchor="middle" fill="#475569" font-size="10">타입 정의</text>

  <!-- ── ui internals ── -->
  <rect x="684" y="216" width="132" height="80" rx="7" fill="white" stroke="#A7F3D0" stroke-width="1.5"/>
  <text x="750" y="234" text-anchor="middle" fill="#065F46" font-size="10" font-weight="600">src/</text>
  <line x1="694" y1="240" x2="806" y2="240" stroke="#E2E8F0" stroke-width="1"/>
  <text x="750" y="256" text-anchor="middle" fill="#475569" font-size="10">공통 UI 컴포넌트</text>
  <text x="750" y="272" text-anchor="middle" fill="#475569" font-size="10">NativeWind 스타일</text>
  <text x="750" y="288" text-anchor="middle" fill="#475569" font-size="10">tailwind.config.js</text>

  <!-- packages → apps 참조 화살표 -->
  <defs>
    <marker id="arrowGreen" markerWidth="7" markerHeight="5" refX="6" refY="2.5" orient="auto">
      <polygon points="0 0, 7 2.5, 0 5" fill="#059669"/>
    </marker>
  </defs>

  <!-- common → workerApp -->
  <path d="M504 256 Q430 330 152 360" fill="none" stroke="#059669" stroke-width="1.5" stroke-dasharray="5,3" marker-end="url(#arrowGreen)"/>
  <!-- common → managerApp -->
  <path d="M504 270 Q440 340 380 370" fill="none" stroke="#059669" stroke-width="1.5" stroke-dasharray="5,3" marker-end="url(#arrowGreen)"/>

  <!-- legend -->
  <rect x="430" y="360" width="380" height="88" rx="8" fill="white" stroke="#E2E8F0" stroke-width="1.5"/>
  <text x="620" y="378" text-anchor="middle" fill="#64748B" font-size="11" font-weight="600">범례</text>

  <rect x="446" y="388" width="12" height="12" rx="3" fill="#3B82F6"/>
  <text x="464" y="399" fill="#475569" font-size="10">각 앱 독립 네이티브 설정 (android/ ios/)</text>

  <rect x="446" y="408" width="12" height="12" rx="3" fill="#6366F1"/>
  <text x="464" y="419" fill="#475569" font-size="10">앱별 개별 설정 파일</text>

  <rect x="446" y="428" width="12" height="12" rx="3" fill="#059669"/>
  <text x="464" y="439" fill="#475569" font-size="10">공유 패키지 (두 앱에서 참조)</text>

</svg>
